<svg xmlns="http://www.w3.org/2000/svg" height="397" viewBox="0 0 43.000001 397" width="43" version="1.1"><g transform="matrix(1.33 0 0 -1.33 -1 398)"><g transform="matrix(0 .988 -.933 0 32.6 1.87)" stroke-width="1.04"><g fill-rule="evenodd" transform="matrix(.0922 0 0 .0948 -2.61 -74.4)" stroke-width="1.11" fill="#fff"><path d="m28.3 786h117v185l114-185h117v324l118-194v-130h117v130l119 194v-324h117v185l113-185h120v354h-120v-184l-113 184h-225l-69-112-69 112h-225v-184l-114 184h-117v-356"/><path d="m1.44e3 1.14e3h151l59.2-75.9 59.3 75.9h151l-69.8-89.3h-281l-69.8 89.3"/><path d="m1.54e3 1.01e3h217l-32.9-42.6 34.5-43.4h-221l35.7 43.8-32.9 42.2"/><path d="m1.12e3 786v356h303v-89.3h-186v-40.6h186v-86h-186v-40.6h186v-95l75.5 95h284l77.5-99h-151l-68.2 86.9-68.2-86.9h-453"/></g><text style="word-spacing:0px;letter-spacing:0px" xml:space="preserve" transform="scale(.987 -1.01)" line-height="1.25" font-size="48.8px" y="-0.39001885" x="171.92044" font-family="sans-serif" fill="#ffffff"><tspan font-family="&apos;Microgramma D Extended&apos;" y="-0.39001885" x="171.92044" stroke-width=".781" fill="#ffffff">95</tspan></text><g aria-label="SM" transform="scale(.987 -1.01)" stroke-width=".781" fill="#fff"><path d="m261-23.7v0.676c0 1.94 0.317 2.77 1.29 3.38 0.993 0.634 2.7 0.824 7.08 0.824 4.2 0 5.98-0.106 6.82-0.423 1.46-0.549 2.05-1.75 2.05-4.2 0-1.96-0.359-2.92-1.33-3.55-0.909-0.57-1.82-0.676-6.47-0.824-2.98-0.0845-4.14-0.148-4.52-0.254-0.444-0.106-0.634-0.38-0.634-0.909 0-1.04 0.296-1.12 3.93-1.12 3.04 0 3.57 0.0423 3.93 0.254 0.317 0.19 0.38 0.38 0.423 1.16h4.14c0.0211-0.275 0.0211-0.57 0.0211-0.655 0-1.67-0.338-2.56-1.18-3.13-0.993-0.676-2.47-0.866-6.57-0.866-3.38 0-5.32 0.0845-6.15 0.254-1.94 0.423-2.7 1.63-2.7 4.31 0 3.11 0.972 3.99 4.46 4.1l1.14 0.0423 2.28 0.106 3.38 0.127c1.37 0.0211 1.69 0.232 1.69 1.08 0 1.25 0 1.25-4.61 1.25-3.02 0-3.49-0.0423-3.89-0.296-0.338-0.211-0.423-0.486-0.423-1.33z"/><path d="m280-33.1v14.1h4.23l-0.106-10.5h0.761l5.3 10.5h3.57l5.3-10.5h0.718l-0.106 10.5h4.23v-14.1h-7.73l-4.2 9.15-4.18-9.15z"/></g></g></g></svg>
